<svg xmlns="http://www.w3.org/2000/svg" version="1.1" xmlns:xlink="http://www.w3.org/1999/xlink" xmlns:svgjs="http://svgjs.com/svgjs" width="512" height="512" x="0" y="0" viewBox="0 0 496 496" style="enable-background:new 0 0 512 512" xml:space="preserve"><g>
<path xmlns="http://www.w3.org/2000/svg" style="" d="M252,275.156c-12,0-22.4-10.4-22.4-22.4v-129.6c0-12,10.4-22.4,22.4-22.4h49.6v27.2H256v124.8  c0-2.4-2.4-4.8-4.8-4.8v27.2H252z" fill="#89867c" data-original="#89867c"/>
<g xmlns="http://www.w3.org/2000/svg">
	<path style="" d="M252,127.956c-12,0-22.4,10.4-22.4,22.4v102.4c0,12,10.4,22.4,22.4,22.4v-27.2   c2.4,0,4.8,2.4,4.8,4.8v-97.6v-27.2H252z" fill="#6d6b64" data-original="#6d6b64" class=""/>
	<path style="" d="M304.8,130.356c0,2.4-2.4,4.8-4.8,4.8l0,0c-2.4,0-4.8-2.4-4.8-4.8v-30.4c0-2.4,2.4-4.8,4.8-4.8l0,0   c2.4,0,4.8,2.4,4.8,4.8V130.356z" fill="#6d6b64" data-original="#6d6b64" class=""/>
</g>
<path xmlns="http://www.w3.org/2000/svg" style="" d="M320.8,235.156c0,3.2-2.4,5.6-5.6,5.6h-132c-3.2,0-5.6-2.4-5.6-5.6l12-49.6c0-3.2,2.4-5.6,5.6-5.6  h101.6c3.2,0,5.6,2.4,5.6,5.6L320.8,235.156z" fill="#ffae0b" data-original="#ffae0b"/>
<path xmlns="http://www.w3.org/2000/svg" style="" d="M357.6,283.956c0,4.8-4,8.8-8.8,8.8h-200c-4.8,0-8.8-4-8.8-8.8l17.6-75.2c0-4.8,4-8.8,8.8-8.8h155.2  c4.8,0,8.8,4,8.8,8.8L357.6,283.956z" fill="#ffd00d" data-original="#ffd00d"/>
<path xmlns="http://www.w3.org/2000/svg" style="" d="M357.6,288.756c0,4.8-4,8.8-8.8,8.8h-200c-4.8,0-8.8-4-8.8-8.8l17.6-75.2c0-4.8,4-8.8,8.8-8.8h155.2  c4.8,0,8.8,4,8.8,8.8L357.6,288.756z" fill="#ffae0b" data-original="#ffae0b"/>
<g xmlns="http://www.w3.org/2000/svg">
	<path style="" d="M71.2,371.156c0,5.6-1.6,10.4-4,10.4c-1.6,0-7.2-9.6-7.2-15.2s5.6-4.8,7.2-4.8   C69.6,361.556,71.2,365.556,71.2,371.156z" fill="#7a8487" data-original="#7a8487"/>
	<path style="" d="M60,391.156c0-5.6,1.6-10.4,4-10.4c1.6,0,7.2,9.6,7.2,15.2s-5.6,4.8-7.2,4.8   C61.6,401.556,60,396.756,60,391.156z" fill="#7a8487" data-original="#7a8487"/>
</g>
<path xmlns="http://www.w3.org/2000/svg" style="" d="M143.2,381.556c0,1.6-1.6,3.2-3.2,3.2H68.8c-1.6,0-3.2-1.6-3.2-3.2l0,0c0-1.6,1.6-3.2,3.2-3.2H140  C141.6,378.356,143.2,379.156,143.2,381.556L143.2,381.556z" fill="#596568" data-original="#596568"/>
<path xmlns="http://www.w3.org/2000/svg" style="" d="M314.4,390.356c0,4.8-4,8.8-8.8,8.8h-188c-4.8,0-8.8-4-8.8-8.8v-20c0-4.8,4-8.8,8.8-8.8h188  c4.8,0,8.8,4,8.8,8.8V390.356z" fill="#7a8487" data-original="#7a8487"/>
<path xmlns="http://www.w3.org/2000/svg" style="" d="M325.6,390.356c0,4.8-4,8.8-8.8,8.8h-188c-4.8,0-8.8-4-8.8-8.8v-20c0-4.8,4-8.8,8.8-8.8h188  c4.8,0,8.8,4,8.8,8.8L325.6,390.356L325.6,390.356z" fill="#596568" data-original="#596568"/>
<path xmlns="http://www.w3.org/2000/svg" style="" d="M70.4,285.556c0,20-38.4,36.8-49.6,36.8S0,305.556,0,285.556s2.4-43.2,13.6-43.2  C25.6,242.356,70.4,265.556,70.4,285.556z" fill="#ffd00d" data-original="#ffd00d"/>
<path xmlns="http://www.w3.org/2000/svg" style="" d="M54.4,285.556c0,20-21.6,36.8-33.6,36.8S0,305.556,0,285.556s2.4-43.2,13.6-43.2  C25.6,242.356,54.4,265.556,54.4,285.556z" fill="#ffae0b" data-original="#ffae0b"/>
<path xmlns="http://www.w3.org/2000/svg" style="" d="M496,315.156c0,37.6-39.2,84.8-176,84.8c-136,0-318.4-47.2-318.4-84.8s110.4-68,247.2-68  C385.6,247.156,496,277.556,496,315.156z" fill="#ffd00d" data-original="#ffd00d"/>
<path xmlns="http://www.w3.org/2000/svg" style="" d="M496,315.156c0,37.6-39.2,84.8-176,84.8c-136,0-318.4-47.2-318.4-84.8s129.6-54.4,265.6-54.4  C404,260.756,496,277.556,496,315.156z" fill="#ffae0b" data-original="#ffae0b"/>
<path xmlns="http://www.w3.org/2000/svg" style="" d="M496,315.156c0,37.6-39.2,84.8-176,84.8c-136,0-318.4-47.2-318.4-84.8" fill="#ff860d" data-original="#ff860d"/>
<path xmlns="http://www.w3.org/2000/svg" style="" d="M162.4,354.356c-12,0-21.6-19.2-21.6-31.2s9.6-21.6,21.6-21.6s21.6,9.6,21.6,21.6  S174.4,354.356,162.4,354.356z" fill="#e56a0e" data-original="#e56a0e"/>
<path xmlns="http://www.w3.org/2000/svg" style="" d="M162.4,345.556c-12,0-21.6-9.6-21.6-21.6s9.6-21.6,21.6-21.6s21.6,9.6,21.6,21.6  S174.4,345.556,162.4,345.556z" fill="#77acbf" data-original="#77acbf"/>
<path xmlns="http://www.w3.org/2000/svg" style="" d="M162.4,303.956c11.2,0,20,8.8,20,20s-8.8,20-20,20s-20-8.8-20-20S152,303.956,162.4,303.956   M162.4,299.156c-13.6,0-24,11.2-24,24c0,13.6,11.2,24,24,24c13.6,0,24-11.2,24-24C186.4,310.356,176,299.156,162.4,299.156  L162.4,299.156z" fill="#e8d918" data-original="#e8d918"/>
<path xmlns="http://www.w3.org/2000/svg" style="" d="M142.4,323.156c0,11.2,8.8,20,20,20s20-8.8,20-20c0-3.2-0.8-5.6-1.6-8h-36  C143.2,317.556,142.4,320.756,142.4,323.156z" fill="#539aad" data-original="#539aad"/>
<path xmlns="http://www.w3.org/2000/svg" style="" d="M248.8,354.356c-12,0-21.6-19.2-21.6-31.2s9.6-21.6,21.6-21.6s21.6,9.6,21.6,21.6  S260.8,354.356,248.8,354.356z" fill="#e56a0e" data-original="#e56a0e"/>
<path xmlns="http://www.w3.org/2000/svg" style="" d="M248.8,345.556c-12,0-21.6-9.6-21.6-21.6s9.6-21.6,21.6-21.6s21.6,9.6,21.6,21.6  S260.8,345.556,248.8,345.556z" fill="#77acbf" data-original="#77acbf"/>
<path xmlns="http://www.w3.org/2000/svg" style="" d="M248.8,303.956c11.2,0,20,8.8,20,20s-8.8,20-20,20c-11.2,0-20-8.8-20-20  C228.8,312.756,238.4,303.956,248.8,303.956 M248.8,299.156c-13.6,0-24,11.2-24,24c0,13.6,11.2,24,24,24c13.6,0,24-11.2,24-24  C272.8,310.356,262.4,299.156,248.8,299.156L248.8,299.156z" fill="#e8d918" data-original="#e8d918"/>
<path xmlns="http://www.w3.org/2000/svg" style="" d="M228.8,323.156c0,11.2,8.8,20,20,20c11.2,0,20-8.8,20-20c0-3.2-0.8-5.6-1.6-8h-36  C229.6,317.556,228.8,320.756,228.8,323.156z" fill="#539aad" data-original="#539aad"/>
<path xmlns="http://www.w3.org/2000/svg" style="" d="M335.2,354.356c-12,0-21.6-19.2-21.6-31.2s9.6-21.6,21.6-21.6s21.6,9.6,21.6,21.6  S347.2,354.356,335.2,354.356z" fill="#e56a0e" data-original="#e56a0e"/>
<path xmlns="http://www.w3.org/2000/svg" style="" d="M335.2,345.556c-12,0-21.6-9.6-21.6-21.6s9.6-21.6,21.6-21.6s21.6,9.6,21.6,21.6  S347.2,345.556,335.2,345.556z" fill="#77acbf" data-original="#77acbf"/>
<path xmlns="http://www.w3.org/2000/svg" style="" d="M335.2,303.956c11.2,0,20,8.8,20,20s-8.8,20-20,20s-20-8.8-20-20S324.8,303.956,335.2,303.956   M335.2,299.156c-13.6,0-24,11.2-24,24c0,13.6,11.2,24,24,24c13.6,0,24-11.2,24-24C359.2,310.356,348.8,299.156,335.2,299.156  L335.2,299.156z" fill="#e8d918" data-original="#e8d918"/>
<path xmlns="http://www.w3.org/2000/svg" style="" d="M315.2,323.156c0,11.2,8.8,20,20,20s20-8.8,20-20c0-3.2-0.8-5.6-1.6-8h-36  C316,317.556,315.2,320.756,315.2,323.156z" fill="#539aad" data-original="#539aad"/>
<path xmlns="http://www.w3.org/2000/svg" style="" d="M70.4,381.556c0,2.4-2.4,4.8-4.8,4.8s-4.8-2.4-4.8-4.8s2.4-4.8,4.8-4.8  C68,376.756,70.4,378.356,70.4,381.556z" fill="#7a8487" data-original="#7a8487"/>
<g xmlns="http://www.w3.org/2000/svg">
</g>
<g xmlns="http://www.w3.org/2000/svg">
</g>
<g xmlns="http://www.w3.org/2000/svg">
</g>
<g xmlns="http://www.w3.org/2000/svg">
</g>
<g xmlns="http://www.w3.org/2000/svg">
</g>
<g xmlns="http://www.w3.org/2000/svg">
</g>
<g xmlns="http://www.w3.org/2000/svg">
</g>
<g xmlns="http://www.w3.org/2000/svg">
</g>
<g xmlns="http://www.w3.org/2000/svg">
</g>
<g xmlns="http://www.w3.org/2000/svg">
</g>
<g xmlns="http://www.w3.org/2000/svg">
</g>
<g xmlns="http://www.w3.org/2000/svg">
</g>
<g xmlns="http://www.w3.org/2000/svg">
</g>
<g xmlns="http://www.w3.org/2000/svg">
</g>
<g xmlns="http://www.w3.org/2000/svg">
</g>
</g></svg>